#N canvas -8 -8 1856 1037 10;
#N canvas 0 50 450 250 (subpatch) 0;
#X array sampler-array-\$1 1.70701e+006 float 2;
#X coords 0 1 1.70701e+006 -1 120 50 1 0 0;
#X restore 108 129 graph;
#X obj 217 545 soundfiler;
#X floatatom 219 577 10 0 0 0 - - -;
#X text 39 614 tamaño en muestras;
#X text 226 489 cargar muestras a la tabla;
#X obj 164 316 symbol;
#X obj 164 249 r play-file-\$1;
#X msg 206 504 read -resize \$1 sampler-array-\$2;
#X msg 38 582 \; sampler-array-\$1 normalize;
#X obj 203 446 pack s \$1;
#X msg 46 502 set sampler-array-\$1;
#X obj 154 353 t b s;
#X obj 101 414 \$1;
#X text 841 38 REPRODUCCIÓN;
#X obj 923 381 phasor~;
#X obj 870 732 throw~ a-process-left;
#X obj 1048 732 throw~ a-process-right;
#X obj 960 511 +~ 1;
#X obj 988 441 - 3;
#X obj 960 472 *~;
#X text 988 479 rango de 1 a tamaño-2, f 12;
#X obj 1142 185 f;
#X obj 1169 151 r samplerate;
#X obj 1115 217 *;
#X floatatom 1115 243 10 0 0 0 - - -;
#X floatatom 973 320 10 0 0 0 - - -;
#X obj 973 295 expr 1/($f1/1000);
#X obj 923 353 *;
#X obj 864 322 spigot;
#X obj 961 553 tabread4~ sampler-array-\$1;
#X obj 1115 151 t f b;
#X obj 897 140 r c-play_sample-switch-\$1;
#X obj 366 637 r samplerate;
#X obj 1085 101 r filesample-dur-\$1;
#X obj 219 607 s filesamplesize-\$1;
#X obj 265 646 /;
#X obj 265 686 s filesample-dur-\$1;
#X obj 107 201 tgl 15 0 c-play_sample-switch-\$1 c-play_sample-switch-\$1
empty 17 7 0 10 -262144 -1 -1 0 1;
#X obj 132 205 hsl 93 10 0 1 0 0 c-play-vel-\$2 c-play-vel-\$2 vel.
-2 -5 0 8 -262144 -1 -1 9200 1;
#X obj 973 268 r filesample-dur-\$1;
#X obj 864 85 r c-play-vel-\$2;
#X obj 757 461 snapshot~;
#X floatatom 757 482 5 0 0 0 - - -;
#X obj 751 419 metro 100;
#X obj 754 365 sel 1 0;
#X msg 778 393 stop;
#X obj 111 180 hsl 115 12 0 1 0 0 empty empty empty -2 -8 0 10 -262144
-1 -1 0 1;
#X obj 925 703 throw~ a-play_sample-left-c\$2;
#X obj 1080 679 throw~ a-play_sample-right-c\$2;
#X obj 864 116 expr ($f1)*4-3;
#X obj 1199 563 line~;
#X floatatom 882 376 5 0 0 0 - - -;
#X msg 923 226 \$1;
#X msg 987 217 0;
#X obj 897 166 t f f f b f;
#X obj 1198 533 pack f 30;
#X obj 973 604 *~;
#X obj 1193 474 r c-play_sample-switch-\$1;
#X connect 1 0 2 0;
#X connect 2 0 34 0;
#X connect 2 0 35 0;
#X connect 5 0 11 0;
#X connect 6 0 5 0;
#X connect 7 0 1 0;
#X connect 9 0 7 0;
#X connect 11 0 12 0;
#X connect 11 1 9 0;
#X connect 12 0 10 0;
#X connect 12 0 8 0;
#X connect 14 0 41 0;
#X connect 14 0 19 0;
#X connect 17 0 29 0;
#X connect 18 0 19 1;
#X connect 19 0 17 0;
#X connect 21 0 23 1;
#X connect 22 0 21 1;
#X connect 23 0 24 0;
#X connect 24 0 18 0;
#X connect 25 0 27 1;
#X connect 26 0 25 0;
#X connect 27 0 14 0;
#X connect 27 0 51 0;
#X connect 28 0 27 0;
#X connect 29 0 56 0;
#X connect 30 0 23 0;
#X connect 30 1 21 0;
#X connect 31 0 54 0;
#X connect 32 0 35 1;
#X connect 33 0 30 0;
#X connect 35 0 36 0;
#X connect 39 0 26 0;
#X connect 40 0 49 0;
#X connect 41 0 42 0;
#X connect 41 0 46 0;
#X connect 43 0 41 0;
#X connect 44 0 43 0;
#X connect 44 1 45 0;
#X connect 45 0 43 0;
#X connect 49 0 28 0;
#X connect 50 0 56 1;
#X connect 52 0 27 0;
#X connect 53 0 14 1;
#X connect 54 0 28 1;
#X connect 54 1 52 0;
#X connect 54 2 44 0;
#X connect 54 3 53 0;
#X connect 55 0 50 0;
#X connect 56 0 47 0;
#X connect 56 0 15 0;
#X connect 56 0 48 0;
#X connect 56 0 16 0;
#X connect 57 0 55 0;
#X coords 0 -1 1 1 135 125 1 100 100;
